<svg width="128" height="51" viewBox="0 0 128 51" fill="none" xmlns="http://www.w3.org/2000/svg">
<path d="M6.82721 9.15209C6.82721 9.15209 28.3254 64.8375 128 44.2514C128 44.2514 18.4 72.0595 0.138566 11.5937C-1.02253 7.66072 5.4554 5.10285 6.82721 9.15209Z" fill="#316AB2"/>
<path d="M55.7952 41.5111C55.7952 41.5111 75.5472 24.5272 31.271 0.931641C31.271 0.931641 76.9729 19.6843 61.726 41.5134C58.9983 44.8651 53.5268 43.5951 55.7952 41.5134V41.5111Z" fill="#FBC430"/>
<path d="M86.3758 9.66328L84.8403 12.6549L77.8064 26.4214L70.7729 12.6549L69.2373 9.66328H72.5974L74.1326 12.6549L77.8042 19.8389L81.476 12.6549L83.0113 9.66328H86.3713H86.3758Z" fill="#316AB2"/>
<path d="M104.642 9.68789V26.4483L101.643 24.1497L90.8413 15.8411V26.4483H87.8423V9.73483L90.8413 12.0334L101.643 20.342V9.66328L104.642 9.68565V9.68789Z" fill="#316AB2"/>
<path d="M120.866 11.0299C121.682 11.8438 122.186 12.9685 122.186 14.2138C122.186 16.0339 121.105 17.6125 119.546 18.3324C119.137 18.5247 118.705 18.6433 118.248 18.6924H118.104V18.717H110.064V26.4265H107.063V9.66602H117.649C118.898 9.66602 120.025 10.1691 120.842 10.983L120.866 11.0299ZM118.297 15.6024C118.849 15.3632 119.21 14.8131 119.21 14.2138C119.21 13.6638 118.92 13.2792 118.754 13.1115C118.562 12.9192 118.203 12.6801 117.674 12.6801H110.064V15.7678H117.674C117.889 15.7678 118.106 15.7208 118.297 15.6247V15.6001V15.6024Z" fill="#316AB2"/>
<path d="M74.0631 32.2082V32.1838C74.0631 31.958 73.8747 31.77 73.6483 31.77H71.8058C71.5795 31.77 71.3913 31.958 71.3913 32.1838V32.2082C71.3913 32.4341 71.5795 32.6218 71.8058 32.6218H73.4399C73.8615 32.6218 74.2378 32.8031 74.4979 33.087C74.518 33.1072 74.5293 33.1251 74.5494 33.1452C74.7512 33.3911 74.8744 33.7086 74.8744 34.0507C74.8744 34.8401 74.2313 35.4817 73.4399 35.4817H72.019C71.2275 35.4817 70.5842 34.8401 70.5842 34.0507H71.3958C71.3958 34.3929 71.6736 34.6722 72.019 34.6722H73.4399C73.785 34.6722 74.0699 34.3929 74.0699 34.0507C74.0699 33.7086 73.785 33.4292 73.4399 33.4292H71.8058C71.4742 33.4292 71.176 33.2995 70.9563 33.0847C70.8982 33.0267 70.8465 32.9618 70.8016 32.8903C70.665 32.6958 70.5864 32.4565 70.5864 32.1971V32.1704C70.5864 31.4974 71.1312 30.9473 71.8058 30.9473H73.6483C74.3232 30.9473 74.8744 31.4974 74.8744 32.1704V32.1971L74.0631 32.2037V32.2082Z" fill="#316AB2"/>
<path d="M81.2 33.2161C81.2 34.4659 80.1822 35.4812 78.9294 35.4812C77.6764 35.4812 76.6587 34.4659 76.6587 33.2161C76.6587 31.9662 77.6764 30.9512 78.9294 30.9512C80.1822 30.9512 81.2 31.9662 81.2 33.2161ZM80.3887 33.2161C80.3887 32.4134 79.7341 31.7604 78.9294 31.7604C78.1246 31.7604 77.47 32.4134 77.47 33.2161C77.47 34.0187 78.1246 34.6716 78.9294 34.6716C79.7341 34.6716 80.3887 34.0187 80.3887 33.2161Z" fill="#316AB2"/>
<path d="M86.7278 34.6814V35.4909H84.4234C84.197 35.4909 83.9819 35.4394 83.7867 35.3432C83.5023 35.2 83.2669 34.9675 83.1324 34.6837C83.036 34.4892 82.9844 34.2767 82.9844 34.0486V30.9609H83.7957V34.1269C83.8339 34.4132 84.0625 34.6388 84.3472 34.6769L86.7278 34.6837V34.6814Z" fill="#316AB2"/>
<path d="M92.7145 30.9512V33.2161C92.7145 34.4659 91.6971 35.4812 90.4441 35.4812C89.191 35.4812 88.1733 34.4659 88.1733 33.2161V30.9512H88.9849V33.2161C88.9849 34.0187 89.6393 34.6716 90.4441 34.6716C91.2486 34.6716 91.9032 34.0187 91.9032 33.2161V30.9512H92.7145Z" fill="#316AB2"/>
<path d="M99.1947 30.959V31.7684H97.3322V35.489H96.5206V31.7684H94.658V30.959H99.1947Z" fill="#316AB2"/>
<path d="M101.145 35.4839V30.9539H101.956V35.4839H101.145Z" fill="#316AB2"/>
<path d="M108.282 33.2161C108.282 34.4659 107.264 35.4812 106.011 35.4812C104.758 35.4812 103.74 34.4659 103.74 33.2161C103.74 31.9662 104.758 30.9512 106.011 30.9512C107.264 30.9512 108.282 31.9662 108.282 33.2161ZM107.47 33.2161C107.47 32.4134 106.816 31.7604 106.011 31.7604C105.206 31.7604 104.552 32.4134 104.552 33.2161C104.552 34.0187 105.206 34.6716 106.011 34.6716C106.816 34.6716 107.47 34.0187 107.47 33.2161Z" fill="#316AB2"/>
<path d="M114.607 30.9589V35.4889L113.796 34.8671L110.875 32.6201V35.4866H110.064V30.9678L110.875 31.5894L113.796 33.8365V30.95L114.607 30.9567V30.9589Z" fill="#316AB2"/>
<path d="M120.036 32.2082V32.1838C120.036 31.958 119.847 31.77 119.622 31.77H117.779C117.553 31.77 117.364 31.958 117.364 32.1838V32.2082C117.364 32.4341 117.553 32.6218 117.779 32.6218H119.414C119.835 32.6218 120.211 32.8031 120.471 33.087C120.491 33.1072 120.502 33.1251 120.523 33.1452C120.724 33.3911 120.848 33.7086 120.848 34.0507C120.848 34.8401 120.204 35.4817 119.414 35.4817H117.992C117.201 35.4817 116.557 34.8401 116.557 34.0507H117.369C117.369 34.3929 117.647 34.6722 117.992 34.6722H119.414C119.759 34.6722 120.043 34.3929 120.043 34.0507C120.043 33.7086 119.759 33.4292 119.414 33.4292H117.779C117.448 33.4292 117.149 33.2995 116.93 33.0847C116.871 33.0267 116.82 32.9618 116.775 32.8903C116.638 32.6958 116.56 32.4565 116.56 32.1971V32.1704C116.56 31.4974 117.104 30.9473 117.779 30.9473H119.622C120.296 30.9473 120.848 31.4974 120.848 32.1704V32.1971L120.036 32.2037V32.2082Z" fill="#316AB2"/>
<path d="M119.7 28.0801H71.8334V28.6503H119.7V28.0801Z" fill="#316AB2"/>
<path d="M70.7502 40.1413L70.015 37.892H70.3287L70.6808 38.9989C70.7771 39.303 70.8623 39.5758 70.9206 39.8396H70.9274C70.99 39.5803 71.0841 39.2962 71.1852 39.0011L71.566 37.8898H71.8776L71.0707 40.1394H70.7502V40.1413Z" fill="#1D1D1B"/>
<path d="M73.2876 39.0889H72.4112V39.8984H73.3887V40.1419H72.1222V37.8926H73.3393V38.1363H72.4135V38.8473H73.2899V39.0889H73.2876Z" fill="#1D1D1B"/>
<path d="M73.767 37.9238C73.915 37.8949 74.1256 37.877 74.325 37.877C74.6367 37.877 74.8361 37.9328 74.9774 38.0603C75.0917 38.1609 75.1545 38.313 75.1545 38.4872C75.1545 38.7846 74.9661 38.9815 74.7308 39.0598V39.0709C74.9057 39.1312 75.0088 39.2901 75.0625 39.5248C75.1366 39.8379 75.1902 40.0548 75.2374 40.1419H74.9369C74.9012 40.0792 74.8496 39.8847 74.787 39.6053C74.7195 39.2946 74.5986 39.1783 74.3363 39.167H74.063V40.1419H73.7715V37.9238H73.767ZM74.0585 38.9479H74.3564C74.6682 38.9479 74.8653 38.7779 74.8653 38.5208C74.8653 38.2303 74.6547 38.1027 74.3475 38.1006C74.2062 38.1006 74.1076 38.114 74.0607 38.1275V38.9479H74.0585Z" fill="#1D1D1B"/>
<path d="M75.8567 37.8945V40.1438H75.5652V37.8945H75.8567Z" fill="#1D1D1B"/>
<path d="M76.3654 37.8949H77.5803V38.1386H76.6569V38.8854H77.5109V39.1247H76.6569V40.1419H76.3654V37.8926V37.8949Z" fill="#1D1D1B"/>
<path d="M78.2843 37.8945V40.1438H77.9928V37.8945H78.2843Z" fill="#1D1D1B"/>
<path d="M79.9606 39.0889H79.0841V39.8984H80.0614V40.1419H78.7952V37.8926H80.0123V38.1363H79.0863V38.8473H79.9628V39.0889H79.9606Z" fill="#1D1D1B"/>
<path d="M80.4383 37.9238C80.6156 37.8971 80.8262 37.877 81.057 37.877C81.4763 37.877 81.772 37.973 81.9694 38.1564C82.171 38.3398 82.2876 38.5991 82.2876 38.9636C82.2876 39.3279 82.1732 39.63 81.9626 39.8379C81.752 40.048 81.4043 40.1621 80.9652 40.1621C80.759 40.1621 80.584 40.1532 80.436 40.1352V37.9238H80.4383ZM80.7298 39.9116C80.8037 39.9251 80.9112 39.9273 81.0233 39.9273C81.6465 39.9273 81.9829 39.5806 81.9829 38.9725C81.9851 38.4427 81.6846 38.105 81.0705 38.105C80.9202 38.105 80.8059 38.1185 80.7298 38.1339V39.9093V39.9116Z" fill="#1D1D1B"/>
<path d="M83.3744 40.1419V37.8926H83.6928L84.4145 39.0308C84.5825 39.2945 84.7125 39.5316 84.8201 39.7619L84.8267 39.7574C84.8 39.4578 84.7934 39.1827 84.7934 38.8338V37.8926H85.0666V40.1419H84.7731L84.0581 39.0016C83.9011 38.7512 83.7509 38.4942 83.6367 38.2504H83.6277C83.6433 38.5366 83.6501 38.8071 83.6501 39.1805V40.1419H83.3766H83.3744Z" fill="#1D1D1B"/>
<path d="M86.7411 39.0889H85.8646V39.8984H86.8419V40.1419H85.5754V37.8926H86.7924V38.1363H85.8668V38.8473H86.7431V39.0889H86.7411Z" fill="#1D1D1B"/>
<path d="M88.4538 40.1415L88.1668 39.6453C88.0503 39.4551 87.9764 39.3323 87.9068 39.2026H87.9001C87.8374 39.3323 87.7722 39.4528 87.6558 39.6498L87.3847 40.1438H87.0505L87.7389 39.0058L87.0753 37.8945H87.4136L87.7118 38.4222C87.7947 38.5698 87.8598 38.6816 87.9202 38.8022H87.9292C87.9921 38.6681 88.0503 38.5654 88.1334 38.4222L88.4403 37.8945H88.7743L88.0885 38.9879L88.79 40.1415H88.4516H88.4538Z" fill="#1D1D1B"/>
<path d="M89.5834 38.1405H88.8976V37.8945H90.5673V38.1405H89.8794V40.1415H89.5856V38.1405H89.5834Z" fill="#1D1D1B"/>
<path d="M91.5269 37.9193C91.6682 37.8971 91.8519 37.877 92.0849 37.877C92.3719 37.877 92.5825 37.9439 92.7171 38.0648C92.8403 38.172 92.9144 38.3353 92.9144 38.5343C92.9144 38.7333 92.8539 38.8987 92.7395 39.0149C92.5848 39.1783 92.3337 39.2609 92.0515 39.2609C91.9639 39.2609 91.8833 39.2565 91.8184 39.2408V40.1419H91.5269V37.9193ZM91.8184 39.0037C91.8811 39.0194 91.9616 39.0262 92.0582 39.0262C92.4101 39.0262 92.623 38.8563 92.623 38.5456C92.623 38.2347 92.4123 38.105 92.0917 38.105C91.964 38.105 91.8676 38.114 91.8184 38.1275V39.0015V39.0037Z" fill="#1D1D1B"/>
<path d="M93.39 39.4354L93.1547 40.1419H92.8542L93.6208 37.8926H93.9727L94.7416 40.1419H94.43L94.1901 39.4354H93.39ZM94.1297 39.2074L93.9078 38.5612C93.8585 38.4136 93.8247 38.2818 93.791 38.1498H93.7846C93.7509 38.284 93.715 38.4202 93.6701 38.5567L93.4482 39.2074H94.1274H94.1297Z" fill="#1D1D1B"/>
<path d="M95.3106 40.1419V39.1872L94.5979 37.8926H94.9296L95.2478 38.5141C95.3354 38.6842 95.4024 38.8206 95.4721 38.977H95.4789C95.5415 38.8294 95.6198 38.6842 95.7074 38.5141L96.0324 37.8926H96.3641L95.6089 39.1827V40.1397H95.3151L95.3106 40.1419Z" fill="#1D1D1B"/>
<path d="M98.482 39.1555C98.4666 38.8425 98.4463 38.4648 98.4486 38.1851H98.4396C98.3632 38.449 98.2692 38.7284 98.1548 39.0392L97.7558 40.1304H97.5339L97.1686 39.0594C97.0611 38.7419 96.9714 38.4513 96.9086 38.1851H96.9018C96.8951 38.4648 96.8793 38.8425 96.8571 39.1801L96.7965 40.1438H96.5186L96.6754 37.8945H97.0476L97.4331 38.9812C97.5273 39.2583 97.6036 39.5043 97.6617 39.7392H97.6707C97.7268 39.5111 97.8075 39.2651 97.9083 38.9812L98.3096 37.8945H98.6817L98.8229 40.1438H98.5382L98.482 39.1555Z" fill="#1D1D1B"/>
<path d="M100.439 39.0889H99.5629V39.8984H100.54V40.1419H99.2737V37.8926H100.491V38.1363H99.5652V38.8473H100.441V39.0889H100.439Z" fill="#1D1D1B"/>
<path d="M100.918 40.1419V37.8926H101.237L101.959 39.0308C102.127 39.2945 102.257 39.5316 102.364 39.7619L102.371 39.7574C102.344 39.4578 102.337 39.1827 102.337 38.8338V37.8926H102.611V40.1419H102.317L101.602 39.0016C101.445 38.7512 101.295 38.4942 101.181 38.2504H101.172C101.188 38.5366 101.194 38.8071 101.194 39.1805V40.1419H100.921H100.918Z" fill="#1D1D1B"/>
<path d="M103.546 38.1405H102.86V37.8945H104.53V38.1405H103.842V40.1415H103.548V38.1405H103.546Z" fill="#1D1D1B"/>
<path d="M105.449 39.788C105.579 39.8685 105.77 39.9357 105.971 39.9357C106.269 39.9357 106.442 39.7791 106.442 39.551C106.442 39.3408 106.321 39.2201 106.018 39.1038C105.651 38.9743 105.422 38.7841 105.422 38.4665C105.422 38.1156 105.713 37.8562 106.151 37.8562C106.382 37.8562 106.547 37.9098 106.648 37.9658L106.567 38.2029C106.494 38.1625 106.343 38.0955 106.139 38.0955C105.832 38.0955 105.713 38.2788 105.713 38.4332C105.713 38.6433 105.85 38.7462 106.162 38.8669C106.543 39.0143 106.738 39.1979 106.738 39.5263C106.738 39.873 106.48 40.1725 105.949 40.1725C105.731 40.1725 105.494 40.11 105.373 40.0296L105.447 39.7859L105.449 39.788Z" fill="#1D1D1B"/>
<path d="M109.064 38.9944C109.064 39.7681 108.593 40.1794 108.017 40.1794C107.441 40.1794 107.004 39.7187 107.004 39.0391C107.004 38.3257 107.448 37.8586 108.051 37.8586C108.654 37.8586 109.064 38.328 109.064 38.9965V38.9944ZM107.316 39.0301C107.316 39.5109 107.576 39.9401 108.035 39.9401C108.495 39.9401 108.757 39.5152 108.757 39.0055C108.757 38.5583 108.524 38.0912 108.037 38.0912C107.551 38.0912 107.316 38.5337 107.316 39.028V39.0301Z" fill="#1D1D1B"/>
<path d="M109.441 37.8945H109.732V39.9H110.696V40.1438H109.443V37.8945H109.441Z" fill="#1D1D1B"/>
<path d="M111.192 37.8945V39.2249C111.192 39.7279 111.416 39.9426 111.716 39.9426C112.05 39.9426 112.266 39.7213 112.266 39.2249V37.8945H112.559V39.2048C112.559 39.8955 112.194 40.1796 111.705 40.1796C111.244 40.1796 110.896 39.9157 110.896 39.2182V37.8945H111.19H111.192Z" fill="#1D1D1B"/>
<path d="M113.491 38.1405H112.806V37.8945H114.475V38.1405H113.787V40.1415H113.494V38.1405H113.491Z" fill="#1D1D1B"/>
<path d="M115.018 37.8945V40.1438H114.726V37.8945H115.018Z" fill="#1D1D1B"/>
<path d="M117.453 38.9944C117.453 39.7681 116.981 40.1794 116.405 40.1794C115.829 40.1794 115.393 39.7187 115.393 39.0391C115.393 38.3257 115.836 37.8586 116.439 37.8586C117.042 37.8586 117.453 38.328 117.453 38.9965V38.9944ZM115.703 39.0301C115.703 39.5109 115.963 39.9401 116.424 39.9401C116.883 39.9401 117.145 39.5152 117.145 39.0055C117.145 38.5583 116.909 38.0912 116.426 38.0912C115.942 38.0912 115.703 38.5337 115.703 39.028V39.0301Z" fill="#1D1D1B"/>
<path d="M117.829 40.1419V37.8926H118.147L118.868 39.0308C119.037 39.2945 119.167 39.5316 119.274 39.7619L119.281 39.7574C119.254 39.4578 119.248 39.1827 119.248 38.8338V37.8926H119.521V40.1419H119.227L118.513 39.0016C118.356 38.7512 118.205 38.4942 118.091 38.2504H118.082C118.098 38.5366 118.104 38.8071 118.104 39.1805V40.1419H117.831H117.829Z" fill="#1D1D1B"/>
<path d="M119.99 39.788C120.119 39.8685 120.31 39.9357 120.512 39.9357C120.81 39.9357 120.982 39.7791 120.982 39.551C120.982 39.3408 120.861 39.2201 120.559 39.1038C120.192 38.9743 119.963 38.7841 119.963 38.4665C119.963 38.1156 120.254 37.8562 120.691 37.8562C120.922 37.8562 121.088 37.9098 121.189 37.9658L121.108 38.2029C121.034 38.1625 120.884 38.0955 120.68 38.0955C120.372 38.0955 120.254 38.2788 120.254 38.4332C120.254 38.6433 120.391 38.7462 120.703 38.8669C121.083 39.0143 121.278 39.1979 121.278 39.5263C121.278 39.873 121.02 40.1725 120.49 40.1725C120.272 40.1725 120.034 40.11 119.913 40.0296L119.988 39.7859L119.99 39.788Z" fill="#1D1D1B"/>
<path d="M45.8339 14.5266V16.6127L52.7625 21.7933V20.3042L45.8339 14.5266Z" fill="#316AB2"/>
<path d="M45.8339 19.8283L52.7625 24.2375V22.6879L45.8339 17.6438V19.8283Z" fill="#316AB2"/>
<path d="M45.8339 23.0745L52.7625 27.0365V25.3394L45.8339 20.9414V23.0745Z" fill="#316AB2"/>
<path d="M45.8339 26.1425L52.7625 29.4405V27.8909L45.8339 24.2375V26.1425Z" fill="#316AB2"/>
<path d="M45.834 29.2011L52.7626 31.8617V30.4912L45.834 27.334V29.2011Z" fill="#316AB2"/>
<path d="M45.8339 32.8143L52.7625 34.7618V33.2122L45.8339 30.6297V32.8143Z" fill="#316AB2"/>
<path d="M45.834 35.9133L52.7626 37.0244V35.9133L45.834 34.0059V35.9133Z" fill="#316AB2"/>
<path d="M52.7626 41.6961V41.0364L50.0817 40.8418C50.958 41.1348 51.8525 41.4211 52.7626 41.6961Z" fill="#316AB2"/>
<path d="M45.8339 39.3073C45.9797 39.3654 46.1299 39.4214 46.2779 39.4772L52.7602 39.9221V38.4532L45.8339 37.3016V39.3073Z" fill="#316AB2"/>
<path d="M41.0771 37.2883C42.2472 37.8272 43.453 38.3504 44.6993 38.8556V14.5266L41.0771 17.3663V37.2883Z" fill="#316AB2"/>
<path d="M31.271 5.44727V7.53336L38.1995 12.7162V11.2271L31.271 5.44727Z" fill="#FBC430"/>
<path d="M31.271 10.7501L38.1995 15.1571V13.6076L31.271 8.56563V10.7501Z" fill="#FBC430"/>
<path d="M31.271 13.9966L38.1995 17.9564V16.2594L31.271 11.8613V13.9966Z" fill="#FBC430"/>
<path d="M31.271 17.0642L38.1995 20.36V18.8105L31.271 15.157V17.0642Z" fill="#FBC430"/>
<path d="M31.2 19.9819L38.1284 22.6425V21.2743L31.2 18.1172V19.9819Z" fill="#FBC430"/>
<path d="M31.271 23.7372L38.1995 25.6825V24.1329L31.271 21.5527V23.7372Z" fill="#FBC430"/>
<path d="M31.271 26.8329L38.1995 27.9443V26.8329L31.271 24.9258V26.8329Z" fill="#FBC430"/>
<path d="M31.271 30.3688L38.1995 30.8451V29.3761L31.271 28.2246V30.3688Z" fill="#FBC430"/>
<path d="M35.4849 34.4578C36.3635 34.9454 37.2691 35.426 38.1993 35.8978V34.4578H35.4849Z" fill="#FBC430"/>
<path d="M31.0776 31.8193C31.9608 32.3893 32.8755 32.9506 33.819 33.5052H38.199V31.9556L31.0776 31.4414V31.8172V31.8193Z" fill="#FBC430"/>
<path d="M26.5143 28.6337C27.6619 29.4989 28.8679 30.3575 30.1365 31.2029V5.44727L26.5143 8.28687V28.6337Z" fill="#FBC430"/>
<path d="M17.0731 0V2.08388L23.9994 7.26673V5.77761L17.0731 0Z" fill="#1F3D8B"/>
<path d="M17.0731 5.30169L23.9994 9.7109V8.16142L17.0731 3.11719V5.30169Z" fill="#1F3D8B"/>
<path d="M17.0731 8.54742L23.9994 12.5094V10.8124L17.0731 6.41211V8.54742Z" fill="#1F3D8B"/>
<path d="M17.0731 11.616L23.9994 14.9116V13.3644L17.0731 9.71094V11.616Z" fill="#1F3D8B"/>
<path d="M17.0731 14.6736L23.9994 17.3344V15.9637L17.0731 12.8066V14.6736Z" fill="#1F3D8B"/>
<path d="M17.0731 18.288L23.9994 20.2333V18.686L17.0731 16.1035V18.288Z" fill="#1F3D8B"/>
<path d="M12.3148 14.2629C13.3482 15.6916 14.5496 17.2255 15.9371 18.8174V0L12.3148 2.83961V14.2629Z" fill="#1F3D8B"/>
<path d="M22.4016 25.2864L23.9996 25.396V23.9268L20.2295 23.3008C20.9222 23.9604 21.6439 24.6245 22.4016 25.2864Z" fill="#1F3D8B"/>
<path d="M17.0731 20.0833C17.5394 20.5909 18.0236 21.1029 18.5279 21.6194L24.0016 22.498V21.3869L17.0754 19.4797V20.0833H17.0731Z" fill="#1F3D8B"/>
</svg>
